<svg width="30" height="27" viewBox="0 0 30 27" fill="none" xmlns="http://www.w3.org/2000/svg">
<path d="M22.2222 19.25L28 13.5M28 13.5L22.2222 7.75M28 13.5H7.77778M16.4444 19.25V20.6875C16.4444 21.8312 15.9879 22.9281 15.1752 23.7369C14.3626 24.5456 13.2604 25 12.1111 25H6.33333C5.18406 25 4.08186 24.5456 3.2692 23.7369C2.45655 22.9281 2 21.8312 2 20.6875V6.3125C2 5.16875 2.45655 4.07185 3.2692 3.2631C4.08186 2.45435 5.18406 2 6.33333 2H12.1111C13.2604 2 14.3626 2.45435 15.1752 3.2631C15.9879 4.07185 16.4444 5.16875 16.4444 6.3125V7.75" stroke="#707070" stroke-width="3" stroke-linecap="round" stroke-linejoin="round"/>
</svg>
