<svg width="41" height="40" viewBox="0 0 41 40" fill="none" xmlns="http://www.w3.org/2000/svg">
<g filter="url(#filter0_d_14_140)">
<path d="M3.41699 38.2918V34.8752H37.5837V38.2918H3.41699ZM6.83366 33.1668V22.9168C5.89408 21.3793 5.16803 19.7493 4.65553 18.0267C4.14303 16.3042 3.88678 14.546 3.88678 12.7522C3.88678 11.0154 4.10744 9.30711 4.54876 7.62725C4.99008 5.94739 5.5097 4.296 6.10762 2.67308C6.3354 2.07516 6.70553 1.59825 7.21803 1.24235C7.73053 0.886447 8.29998 0.708496 8.92637 0.708496C9.80901 0.708496 10.5635 1.00745 11.1899 1.60537C11.8163 2.20329 12.0725 2.91509 11.9587 3.74079L11.4889 7.62725C11.318 8.99391 11.439 10.2894 11.8519 11.5137C12.2647 12.738 12.884 13.8128 13.7097 14.7382C14.5354 15.6635 15.5319 16.4038 16.6993 16.959C17.8666 17.5142 19.1337 17.7918 20.5003 17.7918C22.2087 17.7918 23.9241 17.9698 25.6467 18.3257C27.3692 18.6816 28.8712 19.187 30.1524 19.8418C31.4337 20.4967 32.4231 21.3295 33.1206 22.3403C33.8182 23.351 34.167 24.5967 34.167 26.0772V33.1668H6.83366ZM10.2503 29.7502H30.7503V26.0772C30.7503 25.3939 30.5795 24.7889 30.2378 24.2621C29.8962 23.7354 29.4121 23.3154 28.7857 23.0022C27.6184 22.4328 26.266 21.9915 24.7285 21.6783C23.191 21.3651 21.7816 21.2085 20.5003 21.2085C18.6212 21.2085 16.8772 20.8241 15.2686 20.0554C13.6599 19.2866 12.2932 18.2545 11.1686 16.959C10.0439 15.6635 9.19685 14.1687 8.62741 12.4746C8.05796 10.7805 7.88713 9.02238 8.11491 7.20016C7.83019 8.05433 7.62376 8.96544 7.49564 9.9335C7.36751 10.9016 7.30345 11.8411 7.30345 12.7522C7.30345 14.4036 7.59529 15.991 8.17897 17.5142C8.76265 19.0375 9.4531 20.5252 10.2503 21.9772V29.7502ZM20.5003 16.0835C18.6212 16.0835 17.0125 15.4144 15.6743 14.0762C14.3361 12.738 13.667 11.1293 13.667 9.25016C13.667 7.371 14.3361 5.76232 15.6743 4.42412C17.0125 3.08593 18.6212 2.41683 20.5003 2.41683C22.3795 2.41683 23.9882 3.08593 25.3264 4.42412C26.6646 5.76232 27.3337 7.371 27.3337 9.25016C27.3337 11.1293 26.6646 12.738 25.3264 14.0762C23.9882 15.4144 22.3795 16.0835 20.5003 16.0835ZM20.5003 12.6668C21.4399 12.6668 22.2442 12.3323 22.9133 11.6632C23.5824 10.9941 23.917 10.1897 23.917 9.25016C23.917 8.31058 23.5824 7.50624 22.9133 6.83714C22.2442 6.16804 21.4399 5.8335 20.5003 5.8335C19.5607 5.8335 18.7564 6.16804 18.0873 6.83714C17.4182 7.50624 17.0837 8.31058 17.0837 9.25016C17.0837 10.1897 17.4182 10.9941 18.0873 11.6632C18.7564 12.3323 19.5607 12.6668 20.5003 12.6668ZM13.667 33.1668V31.5866C13.667 29.679 14.329 28.0418 15.6529 26.6752C16.9769 25.3085 18.5927 24.6252 20.5003 24.6252H27.3337V28.0418H20.5003C19.5323 28.0418 18.7208 28.3906 18.066 29.0882C17.4111 29.7858 17.0837 30.6186 17.0837 31.5866V33.1668H13.667Z" fill="#707070"/>
</g>
<defs>
<filter id="filter0_d_14_140" x="-0.583008" y="0.708496" width="42.167" height="45.5835" filterUnits="userSpaceOnUse" color-interpolation-filters="sRGB">
<feFlood flood-opacity="0" result="BackgroundImageFix"/>
<feColorMatrix in="SourceAlpha" type="matrix" values="0 0 0 0 0 0 0 0 0 0 0 0 0 0 0 0 0 0 127 0" result="hardAlpha"/>
<feOffset dy="4"/>
<feGaussianBlur stdDeviation="2"/>
<feComposite in2="hardAlpha" operator="out"/>
<feColorMatrix type="matrix" values="0 0 0 0 0 0 0 0 0 0 0 0 0 0 0 0 0 0 0.25 0"/>
<feBlend mode="normal" in2="BackgroundImageFix" result="effect1_dropShadow_14_140"/>
<feBlend mode="normal" in="SourceGraphic" in2="effect1_dropShadow_14_140" result="shape"/>
</filter>
</defs>
</svg>
