<svg width="33" height="27" viewBox="0 0 33 27" fill="none" xmlns="http://www.w3.org/2000/svg">
<path d="M33 10.41C32.9844 10.2722 32.9542 10.1364 32.91 10.005V9.87C32.8379 9.71577 32.7417 9.574 32.625 9.45L23.625 0.45C23.501 0.333324 23.3592 0.237121 23.205 0.165H23.07C22.9176 0.0776119 22.7493 0.0215163 22.575 0H10.5C9.30653 0 8.16193 0.474106 7.31802 1.31802C6.47411 2.16193 6 3.30653 6 4.5V6H4.5C3.30653 6 2.16193 6.47411 1.31802 7.31802C0.474106 8.16193 0 9.30653 0 10.5V22.5C0 23.6935 0.474106 24.8381 1.31802 25.682C2.16193 26.5259 3.30653 27 4.5 27H22.5C23.6935 27 24.8381 26.5259 25.682 25.682C26.5259 24.8381 27 23.6935 27 22.5V21H28.5C29.6935 21 30.8381 20.5259 31.682 19.682C32.5259 18.8381 33 17.6935 33 16.5V10.41ZM24 5.115L27.885 9H25.5C25.1022 9 24.7206 8.84196 24.4393 8.56066C24.158 8.27936 24 7.89782 24 7.5V5.115ZM24 22.5C24 22.8978 23.842 23.2794 23.5607 23.5607C23.2794 23.842 22.8978 24 22.5 24H4.5C4.10218 24 3.72064 23.842 3.43934 23.5607C3.15804 23.2794 3 22.8978 3 22.5V10.5C3 10.1022 3.15804 9.72064 3.43934 9.43934C3.72064 9.15804 4.10218 9 4.5 9H6V16.5C6 17.6935 6.47411 18.8381 7.31802 19.682C8.16193 20.5259 9.30653 21 10.5 21H24V22.5ZM30 16.5C30 16.8978 29.842 17.2794 29.5607 17.5607C29.2794 17.842 28.8978 18 28.5 18H10.5C10.1022 18 9.72064 17.842 9.43934 17.5607C9.15804 17.2794 9 16.8978 9 16.5V4.5C9 4.10218 9.15804 3.72064 9.43934 3.43934C9.72064 3.15804 10.1022 3 10.5 3H21V7.5C21 8.69347 21.4741 9.83807 22.318 10.682C23.1619 11.5259 24.3065 12 25.5 12H30V16.5Z" fill="#707070"/>
</svg>
