<svg width="26" height="29" viewBox="0 0 26 29" fill="none" xmlns="http://www.w3.org/2000/svg">
<path d="M2.88889 29H23.1111C23.8773 29 24.6121 28.6945 25.1538 28.1506C25.6956 27.6068 26 26.8692 26 26.1001V13.0506C26.0011 12.8598 25.9646 12.6706 25.8928 12.494C25.8209 12.3173 25.715 12.1567 25.5811 12.0212L14.0255 0.421633C13.7549 0.15158 13.3888 0 13.0072 0C12.6256 0 12.2595 0.15158 11.9889 0.421633L0.433333 12.0212C0.29685 12.1555 0.188271 12.3156 0.113887 12.4923C0.0395036 12.669 0.00079336 12.8588 0 13.0506V26.1001C0 26.8692 0.304364 27.6068 0.846135 28.1506C1.38791 28.6945 2.12271 29 2.88889 29ZM10.1111 26.1001V18.8504H15.8889V26.1001H10.1111ZM2.88889 13.6451L13 3.49551L23.1111 13.6451V26.1001H18.7778V18.8504C18.7778 18.0813 18.4734 17.3437 17.9316 16.7999C17.3899 16.256 16.6551 15.9505 15.8889 15.9505H10.1111C9.34492 15.9505 8.61012 16.256 8.06835 16.7999C7.52658 17.3437 7.22222 18.0813 7.22222 18.8504V26.1001H2.88889V13.6451Z" fill="#04789D"/>
</svg>
